<svg width="690" height="197" xmlns="http://www.w3.org/2000/svg" xmlns:xlink="http://www.w3.org/1999/xlink" xml:space="preserve" overflow="hidden"><g transform="translate(-294 -233)"><g><g><g><g><path d="M189.744 81.5698C183.397 81.5698 178.022 83.8116 173.673 87.3499L173.673 82.164 159.007 82.164 159.007 139.29 174.268 139.29 174.268 102.746C176.374 99.8014 181.668 95.6689 188.124 95.6689 190.42 95.6689 192.526 95.831 194.255 96.5872L194.255 81.9209C192.769 81.7048 191.284 81.5698 189.744 81.5698" fill="#FFFFFF" fill-rule="evenodd" fill-opacity="1" transform="matrix(1 0 0 1.00105 297.919 234)"/><path d="M56.7477 121.841C60.6101 125.38 66.6063 127.487 72.3594 127.487 76.4649 127.487 79.6251 125.488 79.6251 122.652 79.6251 114.063 52.048 117.115 52.048 98.748 52.048 87.782 62.6089 80.9756 73.872 80.9756 81.2727 80.9756 89.3486 83.8116 93.103 86.7557L85.9454 97.8297C83.0013 95.7229 79.1389 93.9403 75.0334 93.9403 70.8198 93.9403 67.2816 95.5879 67.2816 98.532 67.2816 105.96 94.8586 103.016 94.8586 122.787 94.8586 133.753 84.1897 140.451 72.2244 140.451 64.3645 140.451 56.0184 137.75 49.347 132.807L56.7477 121.841Z" fill="#FFFFFF" fill-rule="evenodd" fill-opacity="1" transform="matrix(1 0 0 1.00105 297.919 234)"/><path d="M152.498 110.173C152.498 94.2644 141.343 80.9756 125.623 80.9756 108.715 80.9756 97.9377 94.8856 97.9377 110.767 97.9377 128.675 110.74 140.451 127.73 140.451 136.535 140.451 145.556 136.805 151.093 130.215L142.423 121.49C139.722 124.434 134.563 128.081 128.108 128.081 120.005 128.081 113.549 122.544 112.739 114.549L152.174 114.549C152.39 113.252 152.498 111.713 152.498 110.173ZM113.414 103.34C114.117 98.1538 119.276 93.3191 125.623 93.3191 131.835 93.3191 136.427 98.2619 136.886 103.34L113.414 103.34Z" fill="#FFFFFF" fill-rule="evenodd" fill-opacity="1" transform="matrix(1 0 0 1.00105 297.919 234)"/><path d="M230.583 117.007 246.195 82.137 262.023 82.137 235.877 139.263 225.316 139.263 199.144 82.137 214.971 82.137Z" fill="#FFFFFF" fill-rule="evenodd" fill-opacity="1" transform="matrix(1 0 0 1.00105 297.919 234)"/><path d="M274.852 55.3162C280.362 55.3162 284.819 59.5567 284.819 65.0938 284.819 70.6308 280.362 74.8713 274.852 74.8713 269.342 74.8713 264.886 70.6308 264.886 65.0938 264.859 59.5567 269.315 55.3162 274.852 55.3162" fill="#FFFFFF" fill-rule="evenodd" fill-opacity="1" transform="matrix(1 0 0 1.00105 297.919 234)"/><path d="M267.209 82.137 282.469 82.137 282.469 139.263 267.209 139.263Z" fill="#FFFFFF" fill-rule="evenodd" fill-opacity="1" transform="matrix(1 0 0 1.00105 297.919 234)"/><path d="M345.537 127.622C338.839 136.562 330.412 140.451 319.716 140.451 302.105 140.451 289.195 127.27 289.195 110.767 289.195 94.1564 302.456 80.9756 319.824 80.9756 329.682 80.9756 338.488 85.5672 343.754 92.4007L332.951 101.935C329.898 97.9377 325.334 95.1017 319.797 95.1017 310.992 95.1017 304.428 102.043 304.428 110.767 304.428 119.708 310.883 126.325 320.148 126.325 326.36 126.325 331.303 122.544 333.761 118.789L345.537 127.622Z" fill="#FFFFFF" fill-rule="evenodd" fill-opacity="1" transform="matrix(1 0 0 1.00105 297.919 234)"/><path d="M400.934 130.188C395.424 136.778 386.376 140.424 377.571 140.424 360.555 140.424 347.779 128.648 347.779 110.74 347.779 94.8316 358.583 80.9485 375.464 80.9485 391.184 80.9485 402.339 94.2644 402.339 110.146 402.339 111.686 402.231 113.198 401.988 114.495L362.553 114.495C363.364 122.49 369.819 128.027 377.922 128.027 384.377 128.027 389.536 124.38 392.237 121.436L400.934 130.188ZM386.754 103.34C386.295 98.2619 381.703 93.3191 375.491 93.3191 369.144 93.3191 363.985 98.1538 363.283 103.34L386.754 103.34Z" fill="#FFFFFF" fill-rule="evenodd" fill-opacity="1" transform="matrix(1 0 0 1.00105 297.919 234)"/><path d="M408.416 139.263 408.416 82.137 423.082 82.137 423.082 86.7287C427.431 83.1904 432.833 80.9485 439.153 80.9485 447.013 80.9485 454.171 84.4868 458.87 90.1319 462.625 94.6155 464.732 100.369 464.732 110.146L464.732 139.236 449.471 139.236 449.471 109.012C449.471 103.367 448.175 100.423 446.068 98.2889 444.069 96.2902 441.017 95.1017 437.506 95.1017 431.05 95.1017 425.783 99.2342 423.65 102.178L423.65 139.29 408.416 139.29Z" fill="#FFFFFF" fill-rule="evenodd" fill-opacity="1" transform="matrix(1 0 0 1.00105 297.919 234)"/><path d="M504.004 80.9756C485.772 80.8675 470.701 95.777 470.539 114.09 470.458 123.786 474.482 132.51 480.992 138.669 483.341 140.91 487.015 141.127 489.581 139.128 493.362 136.184 498.224 134.401 503.815 134.401 509.406 134.401 514.268 136.157 518.049 139.128 520.642 141.154 524.288 140.883 526.665 138.615 533.067 132.537 537.064 123.921 537.064 114.36 537.064 95.993 522.29 81.0836 504.004 80.9756M503.815 131.052C493.929 131.052 487.177 123.624 487.177 114.414 487.177 105.203 493.929 97.6676 503.815 97.6676 513.701 97.6676 520.453 105.23 520.453 114.414 520.453 123.624 513.701 131.052 503.815 131.052" fill="#62D84E" fill-rule="evenodd" fill-opacity="1" transform="matrix(1 0 0 1.00105 297.919 234)"/><path d="M567.261 139.263 555.89 139.263 533.256 82.137 548.489 82.137 560.887 114.792 573.068 82.137 585.817 82.137 597.863 114.792 610.396 82.137 625.629 82.137 602.995 139.263 591.624 139.263 579.443 106.743Z" fill="#FFFFFF" fill-rule="evenodd" fill-opacity="1" transform="matrix(1 0 0 1.00105 297.919 234)"/><path d="M625.818 132.834 624.522 132.834 624.522 135.238 623.442 135.238 623.442 128.594 626.089 128.594C627.277 128.594 628.222 129.539 628.222 130.728 628.222 131.592 627.682 132.348 626.899 132.645L628.411 135.211 627.223 135.211 625.818 132.834ZM624.522 131.862 626.089 131.862C626.656 131.862 627.142 131.376 627.142 130.755 627.142 130.133 626.683 129.647 626.089 129.647L624.522 129.647 624.522 131.862Z" fill="#FFFFFF" fill-rule="nonzero" fill-opacity="1" transform="matrix(1 0 0 1.00105 297.919 234)"/><path d="M625.683 125.893C629.06 125.893 631.815 128.648 631.815 132.024 631.815 135.4 629.06 138.155 625.683 138.155 622.307 138.155 619.552 135.4 619.552 132.024 619.552 128.648 622.28 125.893 625.683 125.893M625.683 124.921C621.767 124.921 618.58 128.108 618.58 132.024 618.58 135.941 621.767 139.128 625.683 139.128 629.6 139.128 632.787 135.941 632.787 132.024 632.787 128.108 629.6 124.921 625.683 124.921Z" fill="#FFFFFF" fill-rule="nonzero" fill-opacity="1" transform="matrix(1 0 0 1.00105 297.919 234)"/></g></g></g></g></g></svg>